<?xml version="1.0" encoding="UTF-8" standalone="no"?>
<!DOCTYPE svg PUBLIC "-//W3C//DTD SVG 1.1//EN" "http://www.w3.org/Graphics/SVG/1.1/DTD/svg11.dtd">
<svg xmlns="http://www.w3.org/2000/svg" version="1.1" viewBox="0 0 1074 1952">
<g stroke-width="2.00" fill="none" stroke-linecap="butt">
<path stroke="#808080" vector-effect="non-scaling-stroke" d="
  M 824.46 755.00
  C 823.90 754.91 815.20 776.61 814.72 777.99
  Q 806.64 801.22 804.42 825.89
  A 1.00 1.00 0.0 0 1 803.36 826.80
  L 734.16 822.13
  A 0.99 0.99 0.0 0 1 733.23 821.13
  Q 733.25 816.98 732.99 815.25
  Q 726.15 770.78 703.59 731.92
  C 684.65 699.28 661.66 668.87 639.99 637.98
  A 1.00 0.98 70.3 0 0 639.13 637.56
  Q 635.92 637.71 634.23 638.20
  Q 605.16 646.72 596.73 648.74
  C 544.90 661.15 494.97 650.70 448.28 626.06
  C 371.77 585.67 361.04 492.87 374.36 416.59
  A 1.00 0.99 24.8 0 0 374.01 415.65
  C 343.44 390.90 314.26 365.23 288.48 335.41
  Q 242.10 281.75 205.50 220.90
  C 205.28 220.53 204.93 220.42 204.54 220.50"
/>
<path stroke="#808080" vector-effect="non-scaling-stroke" d="
  M 352.22 299.04
  C 368.37 316.90 386.24 333.14 404.96 348.27
  Q 449.12 383.94 496.88 414.65
  C 544.81 445.48 595.53 476.65 636.70 514.79
  C 650.88 527.92 664.07 543.91 674.86 560.70
  Q 699.57 599.12 725.07 634.43
  Q 748.39 666.74 767.85 699.61
  Q 768.69 701.02 769.29 699.49
  Q 788.29 650.65 802.52 598.76
  C 837.19 472.26 843.45 335.17 785.80 213.86
  A 1.03 0.96 5.5 0 0 785.43 213.44
  C 735.45 181.99 672.41 170.64 614.43 169.73
  C 549.56 168.71 484.85 179.61 422.31 198.13
  C 413.21 200.83 404.75 205.80 395.82 209.40
  Q 370.31 219.68 343.25 214.05
  Q 306.37 206.38 272.34 190.17
  Q 269.89 189.00 271.32 191.31
  Q 306.78 248.82 352.22 299.04"
/>
<path stroke="#808080" vector-effect="non-scaling-stroke" d="
  M 444.87 508.72
  C 449.20 529.30 459.81 550.56 478.81 561.19
  C 504.70 575.67 538.42 586.50 568.19 581.44
  Q 581.35 579.20 593.93 575.27
  A 1.00 1.00 0.0 0 0 594.33 573.60
  Q 572.99 552.58 548.74 535.23
  Q 525.26 518.42 501.04 502.68
  Q 471.80 483.67 442.63 464.66
  Q 441.14 463.69 441.08 465.47
  Q 440.38 487.34 444.87 508.72"
/>
<path stroke="#d0a289" vector-effect="non-scaling-stroke" d="
  M 848.95 772.42
  Q 843.67 769.07 838.40 771.02
  C 834.41 772.49 832.30 778.91 831.58 782.57
  Q 830.25 789.26 827.20 809.99
  C 825.32 822.78 820.49 836.69 806.92 840.90
  C 794.18 844.85 783.31 844.51 770.15 842.17
  C 765.11 841.28 760.38 840.84 755.49 840.23
  C 735.72 837.74 718.59 838.65 706.60 819.60
  Q 697.62 805.33 688.81 790.94
  Q 687.03 788.02 679.69 771.54
  C 676.34 764.02 669.65 762.52 661.58 763.15
  C 627.43 765.78 600.14 787.22 577.15 810.66"
/>
<path stroke="#808080" vector-effect="non-scaling-stroke" d="
  M 577.15 810.66
  L 566.23 797.79
  A 1.00 1.00 0.0 0 0 564.83 797.67
  Q 515.20 838.63 476.73 890.21
  C 446.89 930.23 423.98 975.89 410.96 1024.10
  C 355.37 1229.97 479.68 1438.87 606.74 1591.01
  C 700.65 1703.44 809.70 1804.94 925.33 1894.67
  Q 925.74 1894.99 925.75 1895.46"
/>
<path stroke="#808080" vector-effect="non-scaling-stroke" d="
  M 770.31 1886.06
  Q 708.91 1860.38 666.33 1840.41
  C 546.21 1784.08 430.66 1715.55 330.31 1628.94
  C 257.20 1565.84 193.68 1491.94 147.44 1408.13
  Q 73.06 1273.34 71.57 1119.32
  C 70.94 1054.82 81.50 989.97 100.40 926.68
  Q 117.60 869.12 143.96 820.02
  C 150.08 808.62 149.82 800.50 146.14 787.63
  C 123.50 708.56 103.53 627.83 100.76 546.26
  Q 99.67 514.29 105.35 481.58
  C 111.46 446.31 126.10 416.32 147.24 388.49
  Q 160.77 370.68 174.32 353.39
  A 0.99 0.99 0.0 0 0 174.13 351.98
  L 118.75 310.29"
/>
<path stroke="#502309" vector-effect="non-scaling-stroke" d="
  M 920.55 874.18
  Q 920.19 874.88 919.69 875.18
  Q 904.91 884.08 890.27 893.17
  A 1.01 1.00 -30.6 0 0 889.92 894.51
  Q 900.20 913.14 908.87 932.59
  C 937.84 997.61 958.30 1066.23 972.74 1135.85
  C 1010.40 1317.56 1009.86 1504.28 983.49 1687.50
  Q 973.33 1758.15 958.38 1827.75
  A 1.00 1.00 0.0 0 1 956.79 1828.33
  Q 848.15 1742.84 751.38 1644.13
  C 693.34 1584.93 639.25 1521.68 592.00 1453.50
  C 529.06 1362.68 474.06 1254.29 469.17 1141.81
  C 465.36 1054.02 496.68 973.79 553.93 908.18
  Q 580.19 878.09 610.76 852.44
  A 1.01 1.00 50.1 0 0 610.88 851.03
  L 577.15 810.66"
/>
</g>
<path fill="#000000" d="
  M 824.46 755.00
  C 823.90 754.91 815.20 776.61 814.72 777.99
  Q 806.64 801.22 804.42 825.89
  A 1.00 1.00 0.0 0 1 803.36 826.80
  L 734.16 822.13
  A 0.99 0.99 0.0 0 1 733.23 821.13
  Q 733.25 816.98 732.99 815.25
  Q 726.15 770.78 703.59 731.92
  C 684.65 699.28 661.66 668.87 639.99 637.98
  A 1.00 0.98 70.3 0 0 639.13 637.56
  Q 635.92 637.71 634.23 638.20
  Q 605.16 646.72 596.73 648.74
  C 544.90 661.15 494.97 650.70 448.28 626.06
  C 371.77 585.67 361.04 492.87 374.36 416.59
  A 1.00 0.99 24.8 0 0 374.01 415.65
  C 343.44 390.90 314.26 365.23 288.48 335.41
  Q 242.10 281.75 205.50 220.90
  C 205.28 220.53 204.93 220.42 204.54 220.50
  L 204.64 219.88
  A 1.02 1.01 33.2 0 0 204.50 219.21
  C 178.70 176.15 157.26 130.27 142.27 82.87
  Q 141.00 78.88 139.09 75.34
  Q 137.37 72.18 135.65 69.02
  A 1.00 1.00 0.0 0 1 136.07 67.66
  L 197.42 35.30
  A 1.00 0.99 61.2 0 1 198.75 35.69
  Q 217.30 67.72 245.98 90.53
  C 273.16 112.14 304.39 128.51 337.59 138.86
  Q 350.54 142.91 363.18 144.77
  Q 363.40 144.80 363.61 144.74
  C 370.74 142.59 377.16 139.75 383.55 135.98
  Q 386.47 134.25 390.26 133.06
  C 469.87 108.19 554.03 94.40 637.56 99.02
  Q 673.56 101.01 708.88 108.21
  Q 712.12 108.87 709.79 106.52
  Q 685.30 81.91 656.13 63.06
  A 1.00 0.99 -59.3 0 1 655.80 61.74
  L 689.34 0.83
  A 1.00 1.00 0.0 0 1 690.73 0.45
  Q 702.41 7.45 713.85 15.93
  C 795.94 76.80 853.51 165.73 880.63 263.84
  C 925.70 426.87 888.48 602.00 824.41 754.21
  A 0.84 0.79 -43.4 0 0 824.38 754.75
  L 824.46 755.00
  Z
  M 352.22 299.04
  C 368.37 316.90 386.24 333.14 404.96 348.27
  Q 449.12 383.94 496.88 414.65
  C 544.81 445.48 595.53 476.65 636.70 514.79
  C 650.88 527.92 664.07 543.91 674.86 560.70
  Q 699.57 599.12 725.07 634.43
  Q 748.39 666.74 767.85 699.61
  Q 768.69 701.02 769.29 699.49
  Q 788.29 650.65 802.52 598.76
  C 837.19 472.26 843.45 335.17 785.80 213.86
  A 1.03 0.96 5.5 0 0 785.43 213.44
  C 735.45 181.99 672.41 170.64 614.43 169.73
  C 549.56 168.71 484.85 179.61 422.31 198.13
  C 413.21 200.83 404.75 205.80 395.82 209.40
  Q 370.31 219.68 343.25 214.05
  Q 306.37 206.38 272.34 190.17
  Q 269.89 189.00 271.32 191.31
  Q 306.78 248.82 352.22 299.04
  Z
  M 444.87 508.72
  C 449.20 529.30 459.81 550.56 478.81 561.19
  C 504.70 575.67 538.42 586.50 568.19 581.44
  Q 581.35 579.20 593.93 575.27
  A 1.00 1.00 0.0 0 0 594.33 573.60
  Q 572.99 552.58 548.74 535.23
  Q 525.26 518.42 501.04 502.68
  Q 471.80 483.67 442.63 464.66
  Q 441.14 463.69 441.08 465.47
  Q 440.38 487.34 444.87 508.72
  Z"
/>
<path fill="#ffffff" d="
  M 404.96 348.27
  C 386.24 333.14 368.37 316.90 352.22 299.04
  Q 306.78 248.82 271.32 191.31
  Q 269.89 189.00 272.34 190.17
  Q 306.37 206.38 343.25 214.05
  Q 370.31 219.68 395.82 209.40
  C 404.75 205.80 413.21 200.83 422.31 198.13
  C 484.85 179.61 549.56 168.71 614.43 169.73
  C 672.41 170.64 735.45 181.99 785.43 213.44
  A 1.03 0.96 5.5 0 1 785.80 213.86
  C 843.45 335.17 837.19 472.26 802.52 598.76
  Q 788.29 650.65 769.29 699.49
  Q 768.69 701.02 767.85 699.61
  Q 748.39 666.74 725.07 634.43
  Q 699.57 599.12 674.86 560.70
  C 664.07 543.91 650.88 527.92 636.70 514.79
  C 595.53 476.65 544.81 445.48 496.88 414.65
  Q 449.12 383.94 404.96 348.27
  Z"
/>
<path fill="#ffffff" d="
  M 204.54 220.50
  C 204.93 220.42 205.28 220.53 205.50 220.90
  Q 242.10 281.75 288.48 335.41
  C 314.26 365.23 343.44 390.90 374.01 415.65
  A 1.00 0.99 24.8 0 1 374.36 416.59
  C 361.04 492.87 371.77 585.67 448.28 626.06
  C 494.97 650.70 544.90 661.15 596.73 648.74
  Q 605.16 646.72 634.23 638.20
  Q 635.92 637.71 639.13 637.56
  A 1.00 0.98 70.3 0 1 639.99 637.98
  C 661.66 668.87 684.65 699.28 703.59 731.92
  Q 726.15 770.78 732.99 815.25
  Q 733.25 816.98 733.23 821.13
  A 0.99 0.99 0.0 0 0 734.16 822.13
  L 803.36 826.80
  A 1.00 1.00 0.0 0 0 804.42 825.89
  Q 806.64 801.22 814.72 777.99
  C 815.20 776.61 823.90 754.91 824.46 755.00
  Q 837.66 762.28 848.95 772.42
  Q 843.67 769.07 838.40 771.02
  C 834.41 772.49 832.30 778.91 831.58 782.57
  Q 830.25 789.26 827.20 809.99
  C 825.32 822.78 820.49 836.69 806.92 840.90
  C 794.18 844.85 783.31 844.51 770.15 842.17
  C 765.11 841.28 760.38 840.84 755.49 840.23
  C 735.72 837.74 718.59 838.65 706.60 819.60
  Q 697.62 805.33 688.81 790.94
  Q 687.03 788.02 679.69 771.54
  C 676.34 764.02 669.65 762.52 661.58 763.15
  C 627.43 765.78 600.14 787.22 577.15 810.66
  L 566.23 797.79
  A 1.00 1.00 0.0 0 0 564.83 797.67
  Q 515.20 838.63 476.73 890.21
  C 446.89 930.23 423.98 975.89 410.96 1024.10
  C 355.37 1229.97 479.68 1438.87 606.74 1591.01
  C 700.65 1703.44 809.70 1804.94 925.33 1894.67
  Q 925.74 1894.99 925.75 1895.46
  Q 921.82 1898.44 918.05 1901.51
  C 888.49 1925.63 855.69 1918.79 822.83 1906.64
  Q 796.64 1896.96 770.31 1886.06
  Q 708.91 1860.38 666.33 1840.41
  C 546.21 1784.08 430.66 1715.55 330.31 1628.94
  C 257.20 1565.84 193.68 1491.94 147.44 1408.13
  Q 73.06 1273.34 71.57 1119.32
  C 70.94 1054.82 81.50 989.97 100.40 926.68
  Q 117.60 869.12 143.96 820.02
  C 150.08 808.62 149.82 800.50 146.14 787.63
  C 123.50 708.56 103.53 627.83 100.76 546.26
  Q 99.67 514.29 105.35 481.58
  C 111.46 446.31 126.10 416.32 147.24 388.49
  Q 160.77 370.68 174.32 353.39
  A 0.99 0.99 0.0 0 0 174.13 351.98
  L 118.75 310.29
  C 146.48 279.22 173.76 248.67 204.54 220.50
  Z"
/>
<path fill="#000000" d="
  M 118.75 310.29
  L 174.13 351.98
  A 0.99 0.99 0.0 0 1 174.32 353.39
  Q 160.77 370.68 147.24 388.49
  C 126.10 416.32 111.46 446.31 105.35 481.58
  Q 99.67 514.29 100.76 546.26
  C 103.53 627.83 123.50 708.56 146.14 787.63
  C 149.82 800.50 150.08 808.62 143.96 820.02
  Q 117.60 869.12 100.40 926.68
  C 81.50 989.97 70.94 1054.82 71.57 1119.32
  Q 73.06 1273.34 147.44 1408.13
  C 193.68 1491.94 257.20 1565.84 330.31 1628.94
  C 430.66 1715.55 546.21 1784.08 666.33 1840.41
  Q 708.91 1860.38 770.31 1886.06
  L 742.50 1952.03
  L 742.19 1952.00
  C 570.56 1881.35 405.90 1792.67 267.31 1668.70
  C 191.62 1600.99 127.27 1522.97 80.15 1434.60
  Q 3.13 1290.16 0.00 1125.94
  L 0.00 1107.19
  C 1.93 1000.68 26.94 893.73 74.51 798.29
  A 1.00 0.99 50.7 0 0 74.58 797.56
  Q 57.55 739.43 45.37 680.08
  C 34.51 627.18 27.44 572.12 29.49 518.25
  C 31.44 467.09 43.89 417.40 70.83 373.58
  C 84.35 351.60 101.00 331.02 117.08 310.47
  C 117.60 309.80 118.11 309.80 118.75 310.29
  Z"
/>
<path fill="#ffffff" d="
  M 478.81 561.19
  C 459.81 550.56 449.20 529.30 444.87 508.72
  Q 440.38 487.34 441.08 465.47
  Q 441.14 463.69 442.63 464.66
  Q 471.80 483.67 501.04 502.68
  Q 525.26 518.42 548.74 535.23
  Q 572.99 552.58 594.33 573.60
  A 1.00 1.00 0.0 0 1 593.93 575.27
  Q 581.35 579.20 568.19 581.44
  C 538.42 586.50 504.70 575.67 478.81 561.19
  Z"
/>
<path fill="#a04512" d="
  M 848.95 772.42
  C 862.99 782.18 874.17 796.54 883.93 810.92
  Q 904.39 841.08 920.55 874.18
  Q 920.19 874.88 919.69 875.18
  Q 904.91 884.08 890.27 893.17
  A 1.01 1.00 -30.6 0 0 889.92 894.51
  Q 900.20 913.14 908.87 932.59
  C 937.84 997.61 958.30 1066.23 972.74 1135.85
  C 1010.40 1317.56 1009.86 1504.28 983.49 1687.50
  Q 973.33 1758.15 958.38 1827.75
  A 1.00 1.00 0.0 0 1 956.79 1828.33
  Q 848.15 1742.84 751.38 1644.13
  C 693.34 1584.93 639.25 1521.68 592.00 1453.50
  C 529.06 1362.68 474.06 1254.29 469.17 1141.81
  C 465.36 1054.02 496.68 973.79 553.93 908.18
  Q 580.19 878.09 610.76 852.44
  A 1.01 1.00 50.1 0 0 610.88 851.03
  L 577.15 810.66
  C 600.14 787.22 627.43 765.78 661.58 763.15
  C 669.65 762.52 676.34 764.02 679.69 771.54
  Q 687.03 788.02 688.81 790.94
  Q 697.62 805.33 706.60 819.60
  C 718.59 838.65 735.72 837.74 755.49 840.23
  C 760.38 840.84 765.11 841.28 770.15 842.17
  C 783.31 844.51 794.18 844.85 806.92 840.90
  C 820.49 836.69 825.32 822.78 827.20 809.99
  Q 830.25 789.26 831.58 782.57
  C 832.30 778.91 834.41 772.49 838.40 771.02
  Q 843.67 769.07 848.95 772.42
  Z"
/>
<path fill="#000000" d="
  M 577.15 810.66
  L 610.88 851.03
  A 1.01 1.00 50.1 0 1 610.76 852.44
  Q 580.19 878.09 553.93 908.18
  C 496.68 973.79 465.36 1054.02 469.17 1141.81
  C 474.06 1254.29 529.06 1362.68 592.00 1453.50
  C 639.25 1521.68 693.34 1584.93 751.38 1644.13
  Q 848.15 1742.84 956.79 1828.33
  A 1.00 1.00 0.0 0 0 958.38 1827.75
  Q 973.33 1758.15 983.49 1687.50
  C 1009.86 1504.28 1010.40 1317.56 972.74 1135.85
  C 958.30 1066.23 937.84 997.61 908.87 932.59
  Q 900.20 913.14 889.92 894.51
  A 1.01 1.00 -30.6 0 1 890.27 893.17
  Q 904.91 884.08 919.69 875.18
  Q 920.19 874.88 920.55 874.18
  L 949.75 856.86
  A 1.01 1.00 -29.8 0 1 951.14 857.23
  Q 962.26 877.08 971.69 897.78
  Q 991.15 940.46 1006.07 984.94
  C 1050.91 1118.57 1071.20 1260.58 1073.56 1401.19
  C 1076.12 1553.78 1058.72 1706.30 1025.59 1855.16
  Q 1015.02 1902.66 1003.28 1949.87
  A 1.00 1.00 0.0 0 1 1001.73 1950.44
  Q 979.06 1934.27 956.43 1918.07
  Q 944.93 1909.84 926.39 1895.44
  A 0.43 0.41 54.2 0 0 926.00 1895.37
  L 925.75 1895.46
  Q 925.74 1894.99 925.33 1894.67
  C 809.70 1804.94 700.65 1703.44 606.74 1591.01
  C 479.68 1438.87 355.37 1229.97 410.96 1024.10
  C 423.98 975.89 446.89 930.23 476.73 890.21
  Q 515.20 838.63 564.83 797.67
  A 1.00 1.00 0.0 0 1 566.23 797.79
  L 577.15 810.66
  Z"
/>
</svg>
