<?xml version="1.0" encoding="UTF-8" standalone="no"?>
<!DOCTYPE svg PUBLIC "-//W3C//DTD SVG 1.1//EN" "http://www.w3.org/Graphics/SVG/1.1/DTD/svg11.dtd">
<svg xmlns="http://www.w3.org/2000/svg" version="1.1" viewBox="0 0 350 350">
<g stroke-width="2.00" fill="none" stroke-linecap="butt">
<path stroke="#97c0f6" vector-effect="non-scaling-stroke" d="
  M 99.79 117.25
  C 91.18 106.73 82.34 117.31 79.21 125.31
  Q 77.98 128.45 77.97 133.37
  Q 77.91 169.06 78.25 204.75
  Q 78.33 213.31 84.19 218.82
  Q 90.15 224.41 100.23 231.85"
/>
<path stroke="#184077" vector-effect="non-scaling-stroke" d="
  M 100.23 231.85
  C 99.08 248.94 105.63 263.17 122.77 267.78
  C 128.67 269.37 136.37 268.70 143.00 268.79"
/>
<path stroke="#97c0f6" vector-effect="non-scaling-stroke" d="
  M 143.00 268.79
  C 146.93 279.45 145.26 293.65 145.24 305.00
  Q 145.22 314.32 146.69 318.32
  C 152.61 334.47 171.62 332.24 185.01 331.61
  C 196.46 331.07 205.07 321.97 204.94 310.50
  Q 204.70 289.58 205.42 268.73"
/>
<path stroke="#184077" vector-effect="non-scaling-stroke" d="
  M 205.42 268.73
  C 218.86 266.97 230.92 256.32 232.08 242.56
  Q 232.80 233.97 232.29 218.50"
/>
<path stroke="#7ca5db" vector-effect="non-scaling-stroke" d="
  M 232.29 218.50
  Q 237.04 211.30 240.29 203.50"
/>
<path stroke="#97c0f6" vector-effect="non-scaling-stroke" d="
  M 240.29 203.50
  Q 252.50 191.94 237.57 186.96
  A 1.06 1.02 41.5 0 0 236.87 186.99
  L 232.54 188.75"
/>
<path stroke="#184077" vector-effect="non-scaling-stroke" d="
  M 232.54 188.75
  L 232.29 174.50"
/>
<path stroke="#7ca5db" vector-effect="non-scaling-stroke" d="
  M 232.29 174.50
  Q 235.71 170.07 237.62 165.09"
/>
<path stroke="#97c0f6" vector-effect="non-scaling-stroke" d="
  M 237.62 165.09
  Q 246.64 152.99 232.50 150.21"
/>
<path stroke="#184077" vector-effect="non-scaling-stroke" d="
  M 232.50 150.21
  L 232.29 145.00"
/>
<path stroke="#7ca5db" vector-effect="non-scaling-stroke" d="
  M 232.29 145.00
  Q 234.89 142.07 236.06 138.54"
/>
<path stroke="#97c0f6" vector-effect="non-scaling-stroke" d="
  M 236.06 138.54
  Q 246.36 127.29 232.50 122.71"
/>
<path stroke="#184077" vector-effect="non-scaling-stroke" d="
  M 232.50 122.71
  L 232.50 116.29"
/>
<path stroke="#7ca5db" vector-effect="non-scaling-stroke" d="
  M 232.50 116.29
  L 236.66 108.57"
/>
<path stroke="#97c0f6" vector-effect="non-scaling-stroke" d="
  M 236.66 108.57
  Q 246.00 97.07 232.25 93.46"
/>
<path stroke="#184077" vector-effect="non-scaling-stroke" d="
  M 232.25 93.46
  Q 232.44 73.66 232.33 53.86
  Q 232.28 45.40 230.88 40.80
  C 225.74 23.95 211.58 18.93 194.68 19.46
  C 176.34 20.03 157.89 19.63 139.53 19.53
  Q 126.94 19.47 121.72 20.96
  C 108.27 24.79 100.58 36.14 100.20 50.09
  C 99.78 65.13 100.42 78.24 100.13 97.63
  C 100.06 102.21 100.57 110.66 99.79 117.25"
/>
<path stroke="#808080" vector-effect="non-scaling-stroke" d="
  M 232.25 93.46
  Q 229.49 93.77 228.33 94.85
  Q 226.65 96.43 225.17 97.79
  Q 223.48 99.34 223.49 97.05
  Q 223.58 74.39 223.29 52.35
  C 223.16 42.06 220.03 33.99 210.09 30.22
  Q 206.39 28.82 199.21 28.76
  Q 167.56 28.52 135.91 28.57
  Q 126.86 28.58 122.76 30.06
  C 112.77 33.68 109.21 42.03 109.22 52.26
  C 109.33 136.96 108.65 191.39 109.23 236.04
  Q 109.32 242.92 110.78 246.65
  C 114.74 256.70 122.98 259.75 133.44 259.76
  Q 146.03 259.77 158.64 259.71
  Q 161.00 259.70 159.12 258.27
  Q 158.60 257.87 158.06 257.48
  C 145.75 248.38 159.15 228.96 172.43 237.05
  C 180.90 242.21 180.44 254.92 170.89 259.28
  C 170.76 259.34 170.74 259.39 170.75 259.54
  A 0.30 0.23 -2.1 0 0 171.04 259.75
  Q 184.63 259.73 198.22 259.76
  C 209.21 259.79 217.75 257.07 221.86 246.40
  C 224.75 238.91 223.29 225.59 223.09 217.36
  A 1.00 0.99 85.5 0 1 223.94 216.35
  Q 228.78 215.64 232.04 211.50"
/>
<path stroke="#656565" vector-effect="non-scaling-stroke" d="
  M 232.04 211.50
  Q 232.80 214.95 232.29 218.50"
/>
<path stroke="#808080" vector-effect="non-scaling-stroke" d="
  M 205.42 268.73
  L 143.00 268.79"
/>
<path stroke="#808080" vector-effect="non-scaling-stroke" d="
  M 100.23 231.85
  Q 100.05 224.58 100.19 205.44
  Q 100.43 171.35 99.79 117.25"
/>
<path stroke="#e4e4e4" vector-effect="non-scaling-stroke" d="
  M 236.66 108.57
  Q 233.63 110.41 231.50 113.54"
/>
<path stroke="#808080" vector-effect="non-scaling-stroke" d="
  M 231.50 113.54
  L 223.62 121.14
  A 1.02 1.01 -22.1 0 0 223.31 121.87
  L 223.33 126.59
  Q 223.34 128.91 225.02 127.31
  Q 226.35 126.04 227.67 124.81
  C 229.12 123.46 230.66 123.10 232.50 122.71"
/>
<path stroke="#e4e4e4" vector-effect="non-scaling-stroke" d="
  M 236.06 138.54
  Q 233.67 140.11 231.75 142.79"
/>
<path stroke="#808080" vector-effect="non-scaling-stroke" d="
  M 231.75 142.79
  L 223.56 150.65
  A 1.02 0.99 -22.8 0 0 223.25 151.37
  L 223.25 156.24
  A 0.26 0.26 0.0 0 0 223.50 156.50
  L 223.79 156.52
  A 0.66 0.63 -70.7 0 0 224.36 156.23
  Q 227.38 151.73 232.50 150.21"
/>
<path stroke="#e4e4e4" vector-effect="non-scaling-stroke" d="
  M 237.62 165.09
  Q 233.99 167.73 231.00 171.21"
/>
<path stroke="#808080" vector-effect="non-scaling-stroke" d="
  M 231.00 171.21
  L 223.57 178.40
  A 0.99 0.98 -22.8 0 0 223.27 179.13
  L 223.49 195.97
  Q 223.52 197.89 224.86 196.53
  L 232.54 188.75"
/>
<path stroke="#e4e4e4" vector-effect="non-scaling-stroke" d="
  M 240.29 203.50
  L 232.04 211.50"
/>
<path stroke="#656565" vector-effect="non-scaling-stroke" d="
  M 232.50 116.29
  L 231.50 113.54"
/>
<path stroke="#656565" vector-effect="non-scaling-stroke" d="
  M 232.29 174.50
  L 231.00 171.21"
/>
<path stroke="#656565" vector-effect="non-scaling-stroke" d="
  M 232.29 145.00
  L 231.75 142.79"
/>
<path stroke="#808080" vector-effect="non-scaling-stroke" d="
  M 169.42 247.81
  A 3.51 3.51 0.0 0 0 165.91 244.30
  A 3.51 3.51 0.0 0 0 162.40 247.81
  A 3.51 3.51 0.0 0 0 165.91 251.32
  A 3.51 3.51 0.0 0 0 169.42 247.81"
/>
<path stroke="#808080" vector-effect="non-scaling-stroke" d="
  M 151.80 39.17
  A 3.41 3.41 0.0 0 0 148.39 35.76
  A 3.41 3.41 0.0 0 0 144.98 39.17
  A 3.41 3.41 0.0 0 0 148.39 42.58
  A 3.41 3.41 0.0 0 0 151.80 39.17"
/>
<path stroke="#808080" vector-effect="non-scaling-stroke" d="
  M 190.9698 39.1228
  A 3.40 3.40 0.0 0 0 187.5639 35.7287
  L 163.1439 35.7713
  A 3.40 3.40 0.0 0 0 159.7499 39.1772
  L 159.7502 39.3572
  A 3.40 3.40 0.0 0 0 163.1561 42.7513
  L 187.5761 42.7087
  A 3.40 3.40 0.0 0 0 190.9701 39.3028
  L 190.9698 39.1228"
/>
<path stroke="#e4e4e4" vector-effect="non-scaling-stroke" d="
  M 214.50 177.71
  Q 209.19 171.98 214.29 166.00"
/>
<path stroke="#808080" vector-effect="non-scaling-stroke" d="
  M 214.29 166.00
  L 220.94 159.36
  A 0.99 0.99 0.0 0 0 221.23 158.66
  L 221.29 153.05
  A 1.00 1.00 0.0 0 0 220.14 152.05
  Q 217.22 152.50 214.38 150.95"
/>
<path stroke="#e4e4e4" vector-effect="non-scaling-stroke" d="
  M 214.38 150.95
  Q 208.02 144.60 214.21 137.75"
/>
<path stroke="#808080" vector-effect="non-scaling-stroke" d="
  M 214.21 137.75
  L 220.90 131.38
  A 1.03 1.02 68.9 0 0 221.21 130.67
  L 221.34 123.69
  A 1.01 1.00 -2.8 0 0 220.22 122.68
  Q 217.39 123.00 214.57 121.69"
/>
<path stroke="#e4e4e4" vector-effect="non-scaling-stroke" d="
  M 214.57 121.69
  Q 207.99 115.47 214.25 108.46"
/>
<path stroke="#808080" vector-effect="non-scaling-stroke" d="
  M 214.25 108.46
  L 220.92 102.02
  A 0.98 0.97 -21.8 0 0 221.23 101.31
  Q 221.28 82.14 221.23 62.96
  C 221.20 54.40 217.91 50.43 208.98 50.39
  C 182.31 50.26 155.64 50.45 128.97 50.36
  C 118.39 50.32 111.99 50.76 111.99 63.54
  Q 112.01 140.70 111.99 217.85
  C 111.99 226.16 113.67 232.46 123.07 232.44
  Q 166.66 232.33 210.24 232.55
  Q 218.77 232.59 220.85 224.78
  C 221.46 222.50 221.20 219.36 221.44 216.70
  A 1.02 1.00 -73.6 0 0 220.93 215.74
  C 214.02 211.85 215.81 205.30 220.90 200.75
  A 1.02 1.01 69.1 0 0 221.23 200.00
  L 221.29 180.48
  A 0.99 0.99 0.0 0 0 220.27 179.48
  Q 217.12 179.55 214.50 177.71"
/>
<path stroke="#656565" vector-effect="non-scaling-stroke" d="
  M 214.25 108.46
  Q 214.26 85.30 214.23 62.16
  C 214.23 59.13 213.80 57.60 210.50 57.57
  Q 165.87 57.15 121.68 57.54
  Q 119.00 57.56 119.00 60.25
  L 119.00 222.69
  Q 119.00 225.32 121.50 225.32
  L 211.25 225.37
  Q 214.31 225.37 214.32 222.01
  L 214.50 177.71"
/>
<path stroke="#656565" vector-effect="non-scaling-stroke" d="
  M 214.57 121.69
  L 214.21 137.75"
/>
<path stroke="#656565" vector-effect="non-scaling-stroke" d="
  M 214.38 150.95
  L 214.29 166.00"
/>
</g>
<path fill="#2f80ed" d="
  M 170.31 0.00
  L 180.06 0.00
  C 274.37 3.96 346.04 76.36 350.00 170.56
  L 350.00 180.06
  C 346.46 273.49 273.02 346.99 179.44 350.00
  L 169.94 350.00
  C 127.72 348.35 88.23 332.80 57.29 304.35
  Q 3.61 255.00 0.00 179.94
  L 0.00 169.94
  C 3.37 76.76 76.93 3.12 170.31 0.00
  Z
  M 99.79 117.25
  C 91.18 106.73 82.34 117.31 79.21 125.31
  Q 77.98 128.45 77.97 133.37
  Q 77.91 169.06 78.25 204.75
  Q 78.33 213.31 84.19 218.82
  Q 90.15 224.41 100.23 231.85
  C 99.08 248.94 105.63 263.17 122.77 267.78
  C 128.67 269.37 136.37 268.70 143.00 268.79
  C 146.93 279.45 145.26 293.65 145.24 305.00
  Q 145.22 314.32 146.69 318.32
  C 152.61 334.47 171.62 332.24 185.01 331.61
  C 196.46 331.07 205.07 321.97 204.94 310.50
  Q 204.70 289.58 205.42 268.73
  C 218.86 266.97 230.92 256.32 232.08 242.56
  Q 232.80 233.97 232.29 218.50
  Q 237.04 211.30 240.29 203.50
  Q 252.50 191.94 237.57 186.96
  A 1.06 1.02 41.5 0 0 236.87 186.99
  L 232.54 188.75
  L 232.29 174.50
  Q 235.71 170.07 237.62 165.09
  Q 246.64 152.99 232.50 150.21
  L 232.29 145.00
  Q 234.89 142.07 236.06 138.54
  Q 246.36 127.29 232.50 122.71
  L 232.50 116.29
  L 236.66 108.57
  Q 246.00 97.07 232.25 93.46
  Q 232.44 73.66 232.33 53.86
  Q 232.28 45.40 230.88 40.80
  C 225.74 23.95 211.58 18.93 194.68 19.46
  C 176.34 20.03 157.89 19.63 139.53 19.53
  Q 126.94 19.47 121.72 20.96
  C 108.27 24.79 100.58 36.14 100.20 50.09
  C 99.78 65.13 100.42 78.24 100.13 97.63
  C 100.06 102.21 100.57 110.66 99.79 117.25
  Z"
/>
<path fill="#000000" d="
  M 232.25 93.46
  Q 229.49 93.77 228.33 94.85
  Q 226.65 96.43 225.17 97.79
  Q 223.48 99.34 223.49 97.05
  Q 223.58 74.39 223.29 52.35
  C 223.16 42.06 220.03 33.99 210.09 30.22
  Q 206.39 28.82 199.21 28.76
  Q 167.56 28.52 135.91 28.57
  Q 126.86 28.58 122.76 30.06
  C 112.77 33.68 109.21 42.03 109.22 52.26
  C 109.33 136.96 108.65 191.39 109.23 236.04
  Q 109.32 242.92 110.78 246.65
  C 114.74 256.70 122.98 259.75 133.44 259.76
  Q 146.03 259.77 158.64 259.71
  Q 161.00 259.70 159.12 258.27
  Q 158.60 257.87 158.06 257.48
  C 145.75 248.38 159.15 228.96 172.43 237.05
  C 180.90 242.21 180.44 254.92 170.89 259.28
  C 170.76 259.34 170.74 259.39 170.75 259.54
  A 0.30 0.23 -2.1 0 0 171.04 259.75
  Q 184.63 259.73 198.22 259.76
  C 209.21 259.79 217.75 257.07 221.86 246.40
  C 224.75 238.91 223.29 225.59 223.09 217.36
  A 1.00 0.99 85.5 0 1 223.94 216.35
  Q 228.78 215.64 232.04 211.50
  Q 232.80 214.95 232.29 218.50
  Q 232.80 233.97 232.08 242.56
  C 230.92 256.32 218.86 266.97 205.42 268.73
  L 143.00 268.79
  C 136.37 268.70 128.67 269.37 122.77 267.78
  C 105.63 263.17 99.08 248.94 100.23 231.85
  Q 100.05 224.58 100.19 205.44
  Q 100.43 171.35 99.79 117.25
  C 100.57 110.66 100.06 102.21 100.13 97.63
  C 100.42 78.24 99.78 65.13 100.20 50.09
  C 100.58 36.14 108.27 24.79 121.72 20.96
  Q 126.94 19.47 139.53 19.53
  C 157.89 19.63 176.34 20.03 194.68 19.46
  C 211.58 18.93 225.74 23.95 230.88 40.80
  Q 232.28 45.40 232.33 53.86
  Q 232.44 73.66 232.25 93.46
  Z
  M 169.42 247.81
  A 3.51 3.51 0.0 0 0 165.91 244.30
  A 3.51 3.51 0.0 0 0 162.40 247.81
  A 3.51 3.51 0.0 0 0 165.91 251.32
  A 3.51 3.51 0.0 0 0 169.42 247.81
  Z"
/>
<path fill="#ffffff" d="
  M 232.25 93.46
  Q 246.00 97.07 236.66 108.57
  Q 233.63 110.41 231.50 113.54
  L 223.62 121.14
  A 1.02 1.01 -22.1 0 0 223.31 121.87
  L 223.33 126.59
  Q 223.34 128.91 225.02 127.31
  Q 226.35 126.04 227.67 124.81
  C 229.12 123.46 230.66 123.10 232.50 122.71
  Q 246.36 127.29 236.06 138.54
  Q 233.67 140.11 231.75 142.79
  L 223.56 150.65
  A 1.02 0.99 -22.8 0 0 223.25 151.37
  L 223.25 156.24
  A 0.26 0.26 0.0 0 0 223.50 156.50
  L 223.79 156.52
  A 0.66 0.63 -70.7 0 0 224.36 156.23
  Q 227.38 151.73 232.50 150.21
  Q 246.64 152.99 237.62 165.09
  Q 233.99 167.73 231.00 171.21
  L 223.57 178.40
  A 0.99 0.98 -22.8 0 0 223.27 179.13
  L 223.49 195.97
  Q 223.52 197.89 224.86 196.53
  L 232.54 188.75
  L 236.87 186.99
  A 1.06 1.02 41.5 0 1 237.57 186.96
  Q 252.50 191.94 240.29 203.50
  L 232.04 211.50
  Q 228.78 215.64 223.94 216.35
  A 1.00 0.99 85.5 0 0 223.09 217.36
  C 223.29 225.59 224.75 238.91 221.86 246.40
  C 217.75 257.07 209.21 259.79 198.22 259.76
  Q 184.63 259.73 171.04 259.75
  A 0.30 0.23 -2.1 0 1 170.75 259.54
  C 170.74 259.39 170.76 259.34 170.89 259.28
  C 180.44 254.92 180.90 242.21 172.43 237.05
  C 159.15 228.96 145.75 248.38 158.06 257.48
  Q 158.60 257.87 159.12 258.27
  Q 161.00 259.70 158.64 259.71
  Q 146.03 259.77 133.44 259.76
  C 122.98 259.75 114.74 256.70 110.78 246.65
  Q 109.32 242.92 109.23 236.04
  C 108.65 191.39 109.33 136.96 109.22 52.26
  C 109.21 42.03 112.77 33.68 122.76 30.06
  Q 126.86 28.58 135.91 28.57
  Q 167.56 28.52 199.21 28.76
  Q 206.39 28.82 210.09 30.22
  C 220.03 33.99 223.16 42.06 223.29 52.35
  Q 223.58 74.39 223.49 97.05
  Q 223.48 99.34 225.17 97.79
  Q 226.65 96.43 228.33 94.85
  Q 229.49 93.77 232.25 93.46
  Z
  M 151.80 39.17
  A 3.41 3.41 0.0 0 0 148.39 35.76
  A 3.41 3.41 0.0 0 0 144.98 39.17
  A 3.41 3.41 0.0 0 0 148.39 42.58
  A 3.41 3.41 0.0 0 0 151.80 39.17
  Z
  M 190.9698 39.1228
  A 3.40 3.40 0.0 0 0 187.5639 35.7287
  L 163.1439 35.7713
  A 3.40 3.40 0.0 0 0 159.7499 39.1772
  L 159.7502 39.3572
  A 3.40 3.40 0.0 0 0 163.1561 42.7513
  L 187.5761 42.7087
  A 3.40 3.40 0.0 0 0 190.9701 39.3028
  L 190.9698 39.1228
  Z
  M 214.50 177.71
  Q 209.19 171.98 214.29 166.00
  L 220.94 159.36
  A 0.99 0.99 0.0 0 0 221.23 158.66
  L 221.29 153.05
  A 1.00 1.00 0.0 0 0 220.14 152.05
  Q 217.22 152.50 214.38 150.95
  Q 208.02 144.60 214.21 137.75
  L 220.90 131.38
  A 1.03 1.02 68.9 0 0 221.21 130.67
  L 221.34 123.69
  A 1.01 1.00 -2.8 0 0 220.22 122.68
  Q 217.39 123.00 214.57 121.69
  Q 207.99 115.47 214.25 108.46
  L 220.92 102.02
  A 0.98 0.97 -21.8 0 0 221.23 101.31
  Q 221.28 82.14 221.23 62.96
  C 221.20 54.40 217.91 50.43 208.98 50.39
  C 182.31 50.26 155.64 50.45 128.97 50.36
  C 118.39 50.32 111.99 50.76 111.99 63.54
  Q 112.01 140.70 111.99 217.85
  C 111.99 226.16 113.67 232.46 123.07 232.44
  Q 166.66 232.33 210.24 232.55
  Q 218.77 232.59 220.85 224.78
  C 221.46 222.50 221.20 219.36 221.44 216.70
  A 1.02 1.00 -73.6 0 0 220.93 215.74
  C 214.02 211.85 215.81 205.30 220.90 200.75
  A 1.02 1.01 69.1 0 0 221.23 200.00
  L 221.29 180.48
  A 0.99 0.99 0.0 0 0 220.27 179.48
  Q 217.12 179.55 214.50 177.71
  Z"
/>
<circle fill="#000000" cx="148.39" cy="39.17" r="3.41"/>
<rect fill="#000000" x="-15.61" y="-3.49" transform="translate(175.36,39.24) rotate(-0.1)" width="31.22" height="6.98" rx="3.40"/>
<path fill="#000000" d="
  M 214.25 108.46
  Q 214.26 85.30 214.23 62.16
  C 214.23 59.13 213.80 57.60 210.50 57.57
  Q 165.87 57.15 121.68 57.54
  Q 119.00 57.56 119.00 60.25
  L 119.00 222.69
  Q 119.00 225.32 121.50 225.32
  L 211.25 225.37
  Q 214.31 225.37 214.32 222.01
  L 214.50 177.71
  Q 217.12 179.55 220.27 179.48
  A 0.99 0.99 0.0 0 1 221.29 180.48
  L 221.23 200.00
  A 1.02 1.01 69.1 0 1 220.90 200.75
  C 215.81 205.30 214.02 211.85 220.93 215.74
  A 1.02 1.00 -73.6 0 1 221.44 216.70
  C 221.20 219.36 221.46 222.50 220.85 224.78
  Q 218.77 232.59 210.24 232.55
  Q 166.66 232.33 123.07 232.44
  C 113.67 232.46 111.99 226.16 111.99 217.85
  Q 112.01 140.70 111.99 63.54
  C 111.99 50.76 118.39 50.32 128.97 50.36
  C 155.64 50.45 182.31 50.26 208.98 50.39
  C 217.91 50.43 221.20 54.40 221.23 62.96
  Q 221.28 82.14 221.23 101.31
  A 0.98 0.97 -21.8 0 1 220.92 102.02
  L 214.25 108.46
  Z"
/>
<path fill="#c9c9c9" d="
  M 214.25 108.46
  Q 207.99 115.47 214.57 121.69
  L 214.21 137.75
  Q 208.02 144.60 214.38 150.95
  L 214.29 166.00
  Q 209.19 171.98 214.50 177.71
  L 214.32 222.01
  Q 214.31 225.37 211.25 225.37
  L 121.50 225.32
  Q 119.00 225.32 119.00 222.69
  L 119.00 60.25
  Q 119.00 57.56 121.68 57.54
  Q 165.87 57.15 210.50 57.57
  C 213.80 57.60 214.23 59.13 214.23 62.16
  Q 214.26 85.30 214.25 108.46
  Z"
/>
<path fill="#c9c9c9" d="
  M 236.66 108.57
  L 232.50 116.29
  L 231.50 113.54
  Q 233.63 110.41 236.66 108.57
  Z"
/>
<path fill="#ffffff" d="
  M 99.79 117.25
  Q 100.43 171.35 100.19 205.44
  Q 100.05 224.58 100.23 231.85
  Q 90.15 224.41 84.19 218.82
  Q 78.33 213.31 78.25 204.75
  Q 77.91 169.06 77.97 133.37
  Q 77.98 128.45 79.21 125.31
  C 82.34 117.31 91.18 106.73 99.79 117.25
  Z"
/>
<path fill="#000000" d="
  M 231.50 113.54
  L 232.50 116.29
  L 232.50 122.71
  C 230.66 123.10 229.12 123.46 227.67 124.81
  Q 226.35 126.04 225.02 127.31
  Q 223.34 128.91 223.33 126.59
  L 223.31 121.87
  A 1.02 1.01 -22.1 0 1 223.62 121.14
  L 231.50 113.54
  Z"
/>
<path fill="#000000" d="
  M 214.57 121.69
  Q 217.39 123.00 220.22 122.68
  A 1.01 1.00 -2.8 0 1 221.34 123.69
  L 221.21 130.67
  A 1.03 1.02 68.9 0 1 220.90 131.38
  L 214.21 137.75
  L 214.57 121.69
  Z"
/>
<path fill="#c9c9c9" d="
  M 236.06 138.54
  Q 234.89 142.07 232.29 145.00
  L 231.75 142.79
  Q 233.67 140.11 236.06 138.54
  Z"
/>
<path fill="#000000" d="
  M 231.75 142.79
  L 232.29 145.00
  L 232.50 150.21
  Q 227.38 151.73 224.36 156.23
  A 0.66 0.63 -70.7 0 1 223.79 156.52
  L 223.50 156.50
  A 0.26 0.26 0.0 0 1 223.25 156.24
  L 223.25 151.37
  A 1.02 0.99 -22.8 0 1 223.56 150.65
  L 231.75 142.79
  Z"
/>
<path fill="#000000" d="
  M 214.38 150.95
  Q 217.22 152.50 220.14 152.05
  A 1.00 1.00 0.0 0 1 221.29 153.05
  L 221.23 158.66
  A 0.99 0.99 0.0 0 1 220.94 159.36
  L 214.29 166.00
  L 214.38 150.95
  Z"
/>
<path fill="#c9c9c9" d="
  M 237.62 165.09
  Q 235.71 170.07 232.29 174.50
  L 231.00 171.21
  Q 233.99 167.73 237.62 165.09
  Z"
/>
<path fill="#000000" d="
  M 231.00 171.21
  L 232.29 174.50
  L 232.54 188.75
  L 224.86 196.53
  Q 223.52 197.89 223.49 195.97
  L 223.27 179.13
  A 0.99 0.98 -22.8 0 1 223.57 178.40
  L 231.00 171.21
  Z"
/>
<path fill="#c9c9c9" d="
  M 240.29 203.50
  Q 237.04 211.30 232.29 218.50
  Q 232.80 214.95 232.04 211.50
  L 240.29 203.50
  Z"
/>
<circle fill="#ffffff" cx="165.91" cy="247.81" r="3.51"/>
<path fill="#ffffff" d="
  M 143.00 268.79
  L 205.42 268.73
  Q 204.70 289.58 204.94 310.50
  C 205.07 321.97 196.46 331.07 185.01 331.61
  C 171.62 332.24 152.61 334.47 146.69 318.32
  Q 145.22 314.32 145.24 305.00
  C 145.26 293.65 146.93 279.45 143.00 268.79
  Z"
/>
</svg>
