<svg width="123" height="38" viewBox="0 0 123 38" fill="none" xmlns="http://www.w3.org/2000/svg">
<path fill-rule="evenodd" clip-rule="evenodd" d="M0 18.6114C0 30.2784 0.369 37.1114 1 37.1114C1.631 37.1114 2 30.2784 2 18.6114C2 6.94438 1.631 0.111379 1 0.111379C0.369 0.111379 0 6.94438 0 18.6114ZM53 18.5284C53 41.4334 54.82 44.1614 55.224 21.8614L55.5 6.61138L64.094 21.5594C68.82 29.7804 73.208 36.6804 73.844 36.8924C74.691 37.1754 75 32.3144 75 18.6944C75 -4.21062 73.18 -6.93862 72.776 15.3614L72.5 30.6114L63.906 15.6634C59.18 7.44238 54.792 0.542379 54.156 0.330379C53.309 0.0473788 53 4.90838 53 18.5284ZM10 2.45638C10 3.19638 10.842 4.56338 11.872 5.49538C13.702 7.15138 13.702 7.27338 11.872 10.8624C4.279 25.7564 20.278 42.6214 34.917 35.1534L39.212 32.9624L41.421 35.0364C43.951 37.4144 45 37.6524 45 35.8504C45 34.5364 12.035 1.11138 10.739 1.11138C10.333 1.11138 10 1.71638 10 2.45638ZM21.75 2.27338C20.238 2.82638 19 3.58538 19 3.96038C19 4.33538 24.353 9.98138 30.895 16.5074C41.955 27.5374 42.868 28.2264 43.895 26.3074C45.451 23.4014 45.269 14.5274 43.589 11.3114C39.414 3.31938 29.791 -0.663621 21.75 2.27338ZM101 3.09238C101 4.67738 107.971 15.1114 109.031 15.1114C110.718 15.1114 110.1 13.3074 106.469 7.63038C103.21 2.53638 101 0.702379 101 3.09238ZM109.72 17.1854C101.427 31.5214 99.096 36.9364 102.396 34.1974C103.722 33.0974 121 3.80438 121 2.65738C121 2.35638 120.424 2.11138 119.72 2.11138C119.016 2.11138 114.516 8.89438 109.72 17.1854ZM34.934 6.07838C40.568 8.95138 44.361 17.4024 42.359 22.6194C41.853 23.9384 39.743 22.3244 32.359 14.9704C27.211 9.84438 23 5.30438 23 4.88138C23 3.34138 31.178 4.16138 34.934 6.07838ZM26.904 20.5154L37.273 30.9194L34.186 32.5154C24.628 37.4584 12.602 30.1234 12.626 19.3654C12.635 14.8174 14.251 10.1114 15.803 10.1114C16.206 10.1114 21.202 14.7934 26.904 20.5154ZM83 18.1114C83 18.6674 85.667 19.1114 89 19.1114C92.333 19.1114 95 18.6674 95 18.1114C95 17.5554 92.333 17.1114 89 17.1114C85.667 17.1114 83 17.5554 83 18.1114ZM113 21.1664C113 22.7534 120.93 34.1114 122.037 34.1114C123.816 34.1114 123.024 32.0374 118.963 26.0564C115.188 20.4974 113 18.7034 113 21.1664Z" fill="black"/>
</svg>
