<svg version="1.2" xmlns="http://www.w3.org/2000/svg" viewBox="0 0 588 587" width="588" height="587">
	<title>circle 1 (Traced)-svg</title>
	<defs>
		<linearGradient id="g1" x1="273.1" y1="0" x2="314.2" y2="586.9" gradientUnits="userSpaceOnUse">
			<stop offset="0" stop-color="#e53c39"/>
			<stop offset="1" stop-color="#4022d4"/>
		</linearGradient>
	</defs>
	<style>
		.s0 { fill: url(#g1) } 
	</style>
	<path id="Layer" fill-rule="evenodd" class="s0" d="m329.9 2.2c41.7 5.4 79 18.4 115.8 40.2 6.4 3.8 10.9 7.1 10.6 7.7-0.4 0.6-14.1 21.2-30.5 45.7l-29.7 44.7-6.8-4.1c-9.5-5.7-27.3-14.1-36.8-17.2-51.9-17.1-107.9-11.1-153.3 16.6-3.5 2.1-6.8 3.8-7.3 3.8-1.5 0-61.1-90.1-60.2-91 2.5-2.3 21.6-13 33.8-18.9 35.6-17.3 67.4-25.6 112.5-29.5 8.6-0.7 40.4 0.5 51.9 2zm-227.9 69.7c0.4 0.1 16.6 18.6 36 41.1l35.3 40.8-9 9.2c-5 5-11.3 11.9-14 15.3-24 29.4-40.3 73.3-40.3 108.6v6.7h-110v-5.2c0-8.7 1.9-28.5 4-41.5 10.3-63.9 41.3-122.6 88-166.5 5.1-4.9 9.6-8.7 10-8.5zm427.8 46.8c1.3-0.4 27.2 42.7 27.2 45.3 0 0.4-7.8 4.5-17.2 9.1-9.5 4.5-31.6 15.3-49 23.8l-31.7 15.6-4-7.2c-2.1-4-6-10.3-8.5-14.1-2.6-3.8-4.4-7.1-4-7.5 0.3-0.3 20-15 43.7-32.7 23.8-17.7 43.3-32.2 43.5-32.3zm39.6 75.4c1.3 0.2 4.1 8.8 8.6 26 3.7 14.4 7.9 37.1 6.9 37.8-0.6 0.5-103.8 12.8-106.7 12.8-1.5-0.1-2.2-0.7-2.2-2.1 0-3.4-3.9-21.1-6.5-29.5-1.3-4.4-2.1-8.1-1.7-8.3 0.4-0.2 23.2-8.5 50.7-18.6 27.5-10.1 50.4-18.2 50.9-18.1zm-91.2 99.5h109.1l-0.6 15.8c-0.4 8.6-1.3 19.8-2.1 24.7-1.9 12.6-5.7 31.1-6.5 32.4-0.5 0.7-17.4-3.3-53.1-12.7-46.8-12.3-52.5-14-52.4-15.7 0.1-1.1 1.1-7.1 2.2-13.5 1.1-6.3 2.3-15.9 2.7-21.2zm-367.9 22.1c0.4-0.1 0.7 0 0.7 0.1 0 0.2 0.7 4 1.5 8.6 6.6 37.5 23.7 70.9 50 97.6l8.7 8.8-2.5 2.6c-2.1 2.4-69.7 78.3-70.2 78.9-0.6 0.8-18.9-17.5-26.8-26.7-29-33.8-50.3-74-61.3-115.6-3.6-13.6-8.5-39.5-7.7-40.4 0.2-0.2 24.3-3.4 53.6-7.1 29.3-3.7 53.5-6.8 54-6.8zm356 45.2c0.7 0.2 23.5 9.1 50.7 19.8 27.2 10.6 49.7 19.4 49.9 19.6 0.6 0.4-4.5 12.3-10.2 23.8-12.3 24.9-29.7 49.8-48.1 69.3l-7 7.3-38.7-38.7-38.8-38.8 5.4-5.8c13.1-14.2 25.7-33.6 33.4-51.6 1.3-3.2 2.7-5.2 3.4-4.9zm-64.3 81.7c0.3 0 14.9 19.9 32.4 44.2l32 44.1-3 2.3c-14 11.2-49.6 29.6-73.5 37.9-17.6 6.1-52.4 14-58.6 13.3l-2.7-0.3-6.2-52c-3.5-28.6-6.3-53-6.3-54.1-0.1-1.9 0.7-2.3 5.2-2.8 8.3-1.1 28.5-6.3 36.8-9.5 10.2-4 27.8-12.9 36.4-18.5 3.9-2.5 7.2-4.6 7.5-4.6zm-210.3 4c0.1 0 2.6 1.5 5.5 3.4 23.9 15.2 54.3 24.6 88.1 27.2l8.7 0.6v109.1l-16.7-0.6c-46.9-1.6-98.7-18-140.5-44.6-3.2-2-5.8-4-5.8-4.4 0-0.5 13.6-21.1 30.2-45.8 16.6-24.7 30.3-44.9 30.5-44.9z"/>
</svg>