<?xml version="1.0" encoding="UTF-8" standalone="no"?>
<!DOCTYPE svg PUBLIC "-//W3C//DTD SVG 1.1//EN" "http://www.w3.org/Graphics/SVG/1.1/DTD/svg11.dtd">
<svg xmlns="http://www.w3.org/2000/svg" version="1.1" viewBox="0 0 512 512">
<path fill="#3373ff" d="
  M 212.03 330.28
  C 203.91 338.42 196.90 344.17 185.26 340.16
  C 169.52 334.73 165.84 315.72 177.43 304.18
  Q 286.52 195.52 395.21 86.62
  Q 396.57 85.25 394.64 85.25
  Q 359.11 85.25 323.60 85.25
  Q 316.50 85.25 313.04 84.06
  C 294.45 77.69 293.86 50.67 312.64 44.01
  Q 316.17 42.75 324.01 42.75
  Q 384.17 42.75 444.34 42.74
  C 460.89 42.74 469.27 51.09 469.26 67.65
  Q 469.23 128.14 469.26 188.63
  Q 469.26 195.50 467.92 199.21
  C 461.02 218.29 434.55 217.64 427.97 198.78
  Q 426.70 195.15 426.71 189.05
  Q 426.79 153.21 426.74 117.36
  Q 426.73 115.44 425.37 116.80
  Q 318.63 223.35 212.03 330.28
  Z"
/>
<path fill="#3373ff" d="
  M 340.25 426.71
  C 350.42 426.71 359.37 420.60 361.92 410.79
  Q 362.73 407.70 362.73 400.01
  Q 362.78 327.86 362.74 255.71
  Q 362.73 248.69 364.07 244.96
  C 370.91 225.93 397.40 226.50 404.01 245.30
  Q 405.27 248.89 405.27 254.88
  Q 405.23 326.19 405.25 397.50
  Q 405.26 411.47 404.14 417.42
  C 399.43 442.63 379.36 462.62 354.53 467.88
  Q 348.13 469.24 336.24 469.24
  Q 225.24 469.25 114.24 469.25
  Q 100.43 469.25 94.33 468.07
  C 69.44 463.27 49.45 443.49 44.15 418.83
  Q 42.76 412.38 42.76 399.94
  Q 42.75 288.72 42.75 177.50
  Q 42.75 164.15 44.09 157.60
  C 49.22 132.64 69.48 112.40 94.81 107.81
  Q 100.64 106.75 114.75 106.75
  Q 185.48 106.75 256.20 106.75
  Q 263.23 106.75 266.65 107.90
  C 285.36 114.17 286.02 141.28 267.23 147.97
  Q 263.64 149.24 255.62 149.24
  Q 186.52 149.27 117.42 149.23
  Q 103.80 149.23 99.25 150.80
  C 87.22 154.98 85.23 165.26 85.23 177.36
  Q 85.28 287.10 85.23 396.82
  C 85.22 410.02 86.48 420.78 99.57 425.25
  Q 104.02 426.77 114.61 426.76
  Q 227.42 426.74 340.25 426.71
  Z"
/>
</svg>
