<?xml version="1.0" encoding="UTF-8" standalone="no"?>
<!DOCTYPE svg PUBLIC "-//W3C//DTD SVG 1.1//EN" "http://www.w3.org/Graphics/SVG/1.1/DTD/svg11.dtd">
<svg xmlns="http://www.w3.org/2000/svg" version="1.1" viewBox="0 0 512 512">
<path fill="#000000" d="
  M 512.00 259.06
  L 512.00 264.56
  Q 511.53 273.82 510.86 283.04
  C 503.64 382.73 436.14 470.44 341.77 503.44
  Q 334.74 505.89 330.96 505.65
  C 321.81 505.04 319.70 497.75 319.72 489.56
  Q 319.82 455.81 319.65 422.06
  Q 319.60 411.51 317.28 401.25
  Q 313.97 386.57 303.43 376.31
  Q 302.22 375.13 303.91 374.95
  Q 319.35 373.27 334.43 369.68
  Q 355.45 364.68 375.30 351.56
  C 411.14 327.87 421.08 281.62 418.86 241.46
  C 417.59 218.54 408.96 197.68 393.33 180.77
  A 1.01 1.01 0.0 0 1 393.13 179.73
  C 401.57 157.90 399.32 134.74 390.47 112.88
  A 1.00 0.97 -2.7 0 0 389.80 112.29
  C 381.27 110.05 371.25 112.92 363.06 116.09
  Q 340.53 124.81 320.40 138.38
  A 1.00 0.98 -54.3 0 1 319.58 138.52
  Q 263.84 123.54 208.00 134.80
  Q 205.38 135.33 192.20 138.50
  A 1.02 1.02 0.0 0 1 191.39 138.34
  C 179.06 129.70 165.41 122.83 151.64 117.41
  C 142.37 113.76 131.81 110.16 121.89 112.19
  A 1.01 1.00 -84.9 0 0 121.16 112.81
  C 112.80 134.74 110.31 157.35 118.82 179.70
  A 1.01 0.99 56.1 0 1 118.63 180.73
  Q 94.76 206.92 93.00 241.25
  C 91.40 272.49 97.54 310.25 118.11 335.11
  C 132.84 352.91 155.99 364.38 178.17 369.84
  Q 192.65 373.40 207.42 374.88
  Q 209.43 375.09 208.05 376.56
  Q 195.34 390.15 193.36 408.90
  A 1.00 0.99 -8.7 0 1 192.76 409.71
  Q 177.24 416.43 160.25 416.33
  C 144.50 416.25 130.69 406.63 122.33 393.72
  Q 116.78 385.15 115.16 383.08
  C 105.89 371.28 85.68 357.21 69.82 363.48
  Q 66.69 364.72 68.33 367.66
  Q 71.65 373.65 77.52 377.19
  C 91.23 385.45 100.46 400.83 106.20 415.33
  C 112.67 431.68 125.56 441.94 143.00 445.30
  Q 167.02 449.94 191.10 445.52
  A 1.00 1.00 0.0 0 1 192.28 446.49
  Q 192.57 468.94 192.54 491.76
  C 192.53 498.97 189.02 505.02 181.44 505.66
  Q 177.38 505.99 168.35 502.77
  C 74.70 469.32 7.76 381.28 1.00 281.98
  Q 0.42 273.47 0.00 264.94
  L 0.00 259.19
  Q 0.40 253.09 0.72 247.02
  Q 3.84 187.14 33.57 135.32
  C 82.33 50.34 173.02 1.44 271.01 6.77
  C 308.70 8.82 345.87 19.13 378.78 37.50
  C 460.43 83.08 510.39 165.25 512.00 259.06
  Z"
/>
</svg>
