<?xml version="1.0" encoding="UTF-8" standalone="no"?>
<!DOCTYPE svg PUBLIC "-//W3C//DTD SVG 1.1//EN" "http://www.w3.org/Graphics/SVG/1.1/DTD/svg11.dtd">
<svg xmlns="http://www.w3.org/2000/svg" version="1.1" viewBox="0 0 512 512">
<path fill="#0077b7" d="
  M 45.56 -0.01
  L 466.81 -0.02
  Q 508.01 4.65 512.03 46.07
  L 512.03 466.31
  Q 507.72 507.78 466.18 512.04
  L 45.94 512.00
  C 19.94 510.64 1.73 492.62 0.00 466.44
  L -0.03 45.44
  Q 4.44 4.32 45.56 -0.01
  Z
  M 170.70 110.93
  A 54.43 54.43 0.0 0 0 116.27 56.50
  A 54.43 54.43 0.0 0 0 61.84 110.93
  A 54.43 54.43 0.0 0 0 116.27 165.36
  A 54.43 54.43 0.0 0 0 170.70 110.93
  Z
  M 280.79 219.05
  Q 280.71 211.68 280.75 203.94
  C 280.81 190.79 274.64 188.02 262.13 188.01
  Q 236.19 187.99 210.25 188.00
  C 200.78 188.00 196.50 194.33 196.50 202.98
  Q 196.50 322.05 196.50 441.11
  C 196.50 451.33 201.88 455.51 211.83 455.51
  Q 238.82 455.50 265.82 455.50
  C 277.30 455.50 280.79 449.74 280.77 438.68
  Q 280.68 380.36 280.81 322.04
  Q 280.84 309.36 282.21 302.43
  C 287.84 274.07 304.94 251.93 337.03 257.42
  C 368.75 262.84 372.27 297.24 372.01 322.76
  C 371.60 362.11 372.06 401.50 371.98 440.86
  C 371.96 450.93 377.00 455.49 386.95 455.50
  Q 415.14 455.50 443.34 455.50
  C 454.26 455.50 458.22 450.17 458.23 439.51
  Q 458.29 376.29 457.96 313.06
  C 457.67 255.81 446.35 193.58 377.13 185.21
  Q 354.42 182.47 331.75 187.02
  Q 300.44 193.32 282.25 219.49
  Q 280.82 221.55 280.79 219.05
  Z
  M 158.50 201.94
  A 13.92 13.92 0.0 0 0 144.58 188.02
  L 87.92 188.02
  A 13.92 13.92 0.0 0 0 74.00 201.94
  L 74.00 441.60
  A 13.92 13.92 0.0 0 0 87.92 455.52
  L 144.58 455.52
  A 13.92 13.92 0.0 0 0 158.50 441.60
  L 158.50 201.94
  Z"
/>
</svg>
