<svg width="414" height="122" viewBox="0 0 414 122" fill="none" xmlns="http://www.w3.org/2000/svg">
<path fill-rule="evenodd" clip-rule="evenodd" d="M20.2596 100.411L19.0548 99.0318L18.4558 37.6066L29.1014 47.2568L29.1012 47.2428L36.2943 53.7696V53.773L40.4876 57.573L64.0777 78.9509L89.8337 53.8633L89.8335 53.8389L96.8926 46.9881L98.9887 44.9473L107.553 36.6011L108.167 99.6147L101.042 99.6792L100.588 53.156L96.9869 56.6605L96.9871 56.6814L86.5739 66.7698L86.5742 66.8046L64.2581 88.5424L42.3687 68.7073L42.393 68.6024L28.0043 55.6886L25.7381 53.635L26.1936 100.357L20.2596 100.411ZM63.0539 57.407L28.8931 25.9006L29.04 40.9653L36.2408 48.2797L36.1808 42.1311L63.4467 67.279L89.6893 39.0496L89.7821 48.5618L96.8355 41.1253L96.6419 21.2749L63.0539 57.407ZM97.4067 99.7121L90.2814 99.7766L90.0469 75.7249L97.1015 68.4139L97.4067 99.7121ZM36.7476 100.261L29.6188 100.326L29.3057 68.2191L36.4904 73.8778L36.7476 100.261Z" fill="#F2BA3F"/>
<path fill-rule="evenodd" clip-rule="evenodd" d="M20.2598 100.411L19.0549 99.032L19.0685 100.422L20.2598 100.411Z" fill="#F2BA3F"/>
<path d="M98.9887 44.9469V44.9538L96.8926 46.9877L98.9887 44.9469Z" fill="#051836"/>
<path fill-rule="evenodd" clip-rule="evenodd" d="M20.2598 100.411L19.0549 99.0319L19.0685 100.422L20.2598 100.411Z" fill="white"/>
<path d="M19.0549 99.0319L19.0685 100.422L20.2598 100.411" stroke="black" stroke-width="0.277795" stroke-miterlimit="22.9256"/>
<path fill-rule="evenodd" clip-rule="evenodd" d="M108.154 98.2771L106.555 99.6293L101.042 99.6792L100.588 53.156L96.9869 56.6605L96.9871 56.6814L86.5739 66.7698L86.5742 66.8046L64.2581 88.5424L42.3687 68.7073L42.393 68.6024L28.0043 55.6886L25.7381 53.635L26.1936 100.357L20.2596 100.411L19.0548 99.0318L18.4558 37.6066L29.1014 47.2568L29.1012 47.2428L36.2943 53.7696V53.773L40.4876 57.573L64.0777 78.9509L89.8337 53.8633L89.8335 53.8389L96.8926 46.9881L98.9887 44.9473L107.553 36.6011L108.154 98.2771ZM29.04 40.9653L28.8931 25.9006L63.0539 57.407L96.6419 21.2749L96.8355 41.1253L89.7821 48.5618L89.6893 39.0496L63.4467 67.279L36.1808 42.1311L36.2408 48.2797L29.04 40.9653ZM90.2814 99.7766L90.0469 75.7249L97.1015 68.4139L97.4067 99.7121L90.2814 99.7766ZM29.6188 100.326L29.3057 68.2191L36.4904 73.8778L36.7476 100.261L29.6188 100.326Z" fill="#F2BA3F"/>
<path fill-rule="evenodd" clip-rule="evenodd" d="M108.154 98.2772L106.555 99.6294L108.167 99.6148L108.154 98.2772Z" fill="#F2BA3F"/>
<path fill-rule="evenodd" clip-rule="evenodd" d="M108.256 98.1914L108.053 98.3631L107.453 36.8389L99.0621 45.0167L96.9656 47.0579L89.9365 53.8797L89.9367 53.904C81.316 62.2969 72.6951 70.6901 64.0806 79.089C54.7927 70.6566 45.4907 62.2378 36.1923 53.8158V53.8123L29.2073 47.4744L29.2075 47.4883L18.5607 37.837L19.1574 99.0314V99.8988V100.26H18.9532L18.3521 37.377L28.9964 47.0261L28.9962 47.012C31.4638 49.2498 33.9322 51.4871 36.3974 53.7275V53.7309L64.0757 78.8136L89.7317 53.8235L89.7315 53.799L96.8206 46.9189L98.9163 44.8786L107.653 36.3642C107.858 56.9732 108.062 77.5823 108.256 98.1914ZM106.673 99.5301L106.437 99.7298C104.605 99.7467 102.773 99.7628 100.941 99.7788L100.489 53.3934L97.0899 56.7012L97.09 56.7222L86.6768 66.8105L86.6771 66.8453C79.2032 74.1218 71.7351 81.404 64.2611 88.6804C56.9278 82.0326 49.5862 75.3929 42.2568 68.7411L42.281 68.6365L27.9351 55.7611L25.843 53.8652L26.2973 100.455H18.9532V100.26H26.0911L25.6343 53.4054L28.075 55.6171L42.5061 68.5691L42.4817 68.6741L64.2562 88.4051L86.4722 66.7648L86.4719 66.7298L96.8851 56.6415L96.8849 56.6206L100.688 52.9192L101.143 99.5802L106.673 99.5301ZM28.9384 40.9664L28.7893 25.6684L63.0489 57.2658L96.742 21.0206C96.8097 27.7344 96.8848 34.4495 96.9384 41.1634L89.6828 48.813L89.5901 39.3046L63.4526 67.4208L36.2857 42.3642L36.3459 48.5295C33.8768 46.0217 31.4102 43.5113 28.9388 41.0057L28.9384 40.9664ZM28.998 26.1337L29.1422 40.9257L36.1368 48.0305L36.077 41.8989L63.4417 67.1379L89.7893 38.7953L89.8822 48.3112L96.7335 41.088L96.5427 21.5299L63.0599 57.5488L28.998 26.1337ZM90.1798 99.7777L89.9449 75.6868C92.3609 73.1775 94.7826 70.6728 97.2017 68.1663C97.3067 78.714 97.4111 89.262 97.5102 99.8099C95.0671 99.8335 92.6238 99.8549 90.1807 99.8763L90.1798 99.7777ZM90.1499 75.7638L90.3831 99.6777L97.3041 99.6149L97.0024 68.6624L90.1499 75.7638ZM29.5172 100.327L29.2021 68.0099C31.6661 69.9495 34.1311 71.8883 36.5926 73.8308C36.6705 82.6734 36.759 91.5167 36.8513 100.359C34.407 100.383 31.9625 100.404 29.5182 100.426L29.5172 100.327ZM29.4104 68.429L29.7205 100.227L36.6451 100.164L36.3892 73.9256L29.4104 68.429Z" fill="black"/>
<path fill-rule="evenodd" clip-rule="evenodd" d="M108.256 98.1912L108.053 98.3629L108.064 99.5173L106.673 99.5299L106.437 99.7296C107.048 99.7239 107.659 99.7181 108.27 99.7122C108.266 99.2052 108.261 98.6981 108.256 98.1912Z" fill="black"/>
<path d="M63.0307 115.92C94.5278 115.92 120.061 91.3135 120.061 60.96C120.061 30.6064 94.5278 6 63.0307 6C31.5335 6 6 30.6064 6 60.96C6 91.3135 31.5335 115.92 63.0307 115.92Z" stroke="#F2BA3F" stroke-width="11.7601" stroke-miterlimit="22.9256"/>
<path d="M184.331 60.328V72.444C184.331 77.124 184.66 80.556 185.319 82.74C184.834 83.0173 183.898 83.156 182.511 83.156C181.09 83.156 180.136 82.9307 179.651 82.48C179.166 82.0293 178.923 81.2667 178.923 80.192V56.792C176.635 62.4773 173.723 71.1787 170.187 82.896C169.632 83.0347 168.991 83.104 168.263 83.104C166.46 83.104 165.351 82.6533 164.935 81.752C163.895 79.464 162.352 75.3733 160.307 69.48C158.262 63.552 156.719 59.288 155.679 56.688V72.444C155.679 77.124 156.008 80.556 156.667 82.74C155.731 83.0173 154.83 83.156 153.963 83.156C152.75 83.156 151.918 82.9307 151.467 82.48C151.051 82.0293 150.843 81.2667 150.843 80.192C150.843 79.6373 150.86 78.268 150.895 76.084C150.93 73.9 150.947 72.2013 150.947 70.988V57.884C150.947 54.0013 150.618 50.9507 149.959 48.732C151.346 48.4547 152.576 48.316 153.651 48.316C155.627 48.316 157.135 49.148 158.175 50.812C159.492 52.9267 160.775 55.5787 162.023 58.768C163.306 61.9227 164.276 64.592 164.935 66.776C165.628 68.96 166.582 72.0973 167.795 76.188C170.707 65.2333 173.931 56.74 177.467 50.708C178.368 49.1133 179.842 48.316 181.887 48.316C183.239 48.316 184.366 48.4547 185.267 48.732C184.643 50.812 184.331 54.6773 184.331 60.328ZM208.666 71.3C208.666 68.5267 208.077 66.2213 206.898 64.384C205.754 62.512 204.194 61.576 202.218 61.576C200.208 61.576 198.648 62.3387 197.538 63.864C196.429 65.3893 195.874 67.4173 195.874 69.948C195.874 72.756 196.429 75.0787 197.538 76.916C198.682 78.7533 200.242 79.672 202.218 79.672C204.264 79.672 205.841 78.9093 206.95 77.384C208.094 75.8587 208.666 73.8307 208.666 71.3ZM202.218 83.52C198.613 83.52 195.701 82.3587 193.482 80.036C191.298 77.6787 190.206 74.5413 190.206 70.624C190.206 66.7067 191.298 63.5867 193.482 61.264C195.701 58.9413 198.613 57.78 202.218 57.78C205.858 57.78 208.788 58.9413 211.006 61.264C213.225 63.5867 214.334 66.7067 214.334 70.624C214.334 74.5413 213.225 77.6787 211.006 80.036C208.788 82.3587 205.858 83.52 202.218 83.52ZM225.049 60.692C227.51 58.7507 230.283 57.78 233.369 57.78C235.483 57.78 237.199 58.404 238.517 59.652C239.834 60.9 240.493 62.9107 240.493 65.684C240.493 66.0653 240.458 67.4173 240.389 69.74C240.354 72.0627 240.337 73.7613 240.337 74.836C240.337 77.6787 240.787 80.244 241.689 82.532C240.614 82.9827 239.643 83.208 238.777 83.208C237.355 83.208 236.35 82.9133 235.761 82.324C235.171 81.7347 234.877 80.6253 234.877 78.996C234.877 77.1933 234.911 75.0267 234.981 72.496C235.05 69.9307 235.085 68.1627 235.085 67.192C235.085 65.2853 234.703 63.864 233.941 62.928C233.178 61.992 232.19 61.524 230.977 61.524C229.139 61.524 227.233 62.4253 225.257 64.228C225.326 68.8733 225.361 72.2533 225.361 74.368C225.361 77.696 225.465 80.5387 225.673 82.896C224.737 83.0347 223.87 83.104 223.073 83.104C220.819 83.104 219.693 82.4107 219.693 81.024C219.693 80.0187 219.727 78.3893 219.797 76.136C219.901 73.8827 219.953 71.8547 219.953 70.052C219.953 64.2973 219.623 60.5187 218.965 58.716C219.797 58.3347 220.698 58.144 221.669 58.144C222.674 58.144 223.454 58.3 224.009 58.612C224.563 58.924 224.91 59.6173 225.049 60.692ZM255.584 72.756C254.648 72.756 253.383 72.7213 251.788 72.652C252.135 75.1133 252.915 76.916 254.128 78.06C255.376 79.204 256.902 79.776 258.704 79.776C259.64 79.776 260.611 79.5333 261.616 79.048C262.622 78.5627 263.367 77.8693 263.852 76.968C265.551 77.8693 266.4 78.84 266.4 79.88C266.4 81.0587 265.586 81.96 263.956 82.584C262.327 83.208 260.507 83.52 258.496 83.52C255.238 83.52 252.326 82.4453 249.76 80.296C247.23 78.1467 245.964 75.044 245.964 70.988C245.964 66.724 247.178 63.4653 249.604 61.212C252.066 58.924 254.96 57.78 258.288 57.78C260.958 57.78 263.107 58.508 264.736 59.964C266.4 61.42 267.232 63.1533 267.232 65.164C267.232 66.7933 266.92 68.1453 266.296 69.22C265.707 70.26 264.823 71.0227 263.644 71.508C262.466 71.9933 261.27 72.3227 260.056 72.496C258.843 72.6693 257.352 72.756 255.584 72.756ZM257.82 61.576C256.191 61.576 254.804 62.2 253.66 63.448C252.516 64.696 251.84 66.672 251.632 69.376C253.851 69.376 255.48 69.324 256.52 69.22C259.883 68.804 261.564 67.4867 261.564 65.268C261.564 64.2627 261.2 63.396 260.472 62.668C259.779 61.94 258.895 61.576 257.82 61.576ZM274.583 96C273.889 96 273.213 95.74 272.555 95.22C271.931 94.7 271.411 94.0413 270.995 93.244C271.965 92.5853 273.231 91.3547 274.791 89.552C276.351 87.7493 277.841 85.6693 279.263 83.312C277.98 79.048 276.316 74.4027 274.271 69.376C272.26 64.3493 270.579 61.16 269.227 59.808C270.925 58.6293 272.295 58.04 273.335 58.04C274.652 58.04 275.588 58.6293 276.143 59.808C276.905 61.4027 277.963 63.8813 279.315 67.244C280.667 70.572 281.793 73.7093 282.695 76.656C283.873 73.744 284.844 70.676 285.607 67.452C286.369 64.228 286.751 61.628 286.751 59.652C286.751 59.028 286.716 58.508 286.647 58.092C287.444 57.884 288.328 57.78 289.299 57.78C291.171 57.78 292.107 58.508 292.107 59.964C292.107 61.5587 291.483 64.3147 290.235 68.232C288.987 72.1493 287.513 75.9453 285.815 79.62C282.695 86.38 279.835 91.372 277.235 94.596C276.472 95.532 275.588 96 274.583 96ZM341.905 60.328V72.444C341.905 77.124 342.234 80.556 342.893 82.74C342.408 83.0173 341.472 83.156 340.085 83.156C338.664 83.156 337.71 82.9307 337.225 82.48C336.74 82.0293 336.497 81.2667 336.497 80.192V56.792C334.209 62.4773 331.297 71.1787 327.761 82.896C327.206 83.0347 326.565 83.104 325.837 83.104C324.034 83.104 322.925 82.6533 322.509 81.752C321.469 79.464 319.926 75.3733 317.881 69.48C315.836 63.552 314.293 59.288 313.253 56.688V72.444C313.253 77.124 313.582 80.556 314.241 82.74C313.305 83.0173 312.404 83.156 311.537 83.156C310.324 83.156 309.492 82.9307 309.041 82.48C308.625 82.0293 308.417 81.2667 308.417 80.192C308.417 79.6373 308.434 78.268 308.469 76.084C308.504 73.9 308.521 72.2013 308.521 70.988V57.884C308.521 54.0013 308.192 50.9507 307.533 48.732C308.92 48.4547 310.15 48.316 311.225 48.316C313.201 48.316 314.709 49.148 315.749 50.812C317.066 52.9267 318.349 55.5787 319.597 58.768C320.88 61.9227 321.85 64.592 322.509 66.776C323.202 68.96 324.156 72.0973 325.369 76.188C328.281 65.2333 331.505 56.74 335.041 50.708C335.942 49.1133 337.416 48.316 339.461 48.316C340.813 48.316 341.94 48.4547 342.841 48.732C342.217 50.812 341.905 54.6773 341.905 60.328ZM351.837 58.144C354.333 58.144 355.581 59.0627 355.581 60.9C355.581 61.108 355.529 61.8187 355.425 63.032C355.321 64.2107 355.217 65.684 355.113 67.452C355.043 69.22 355.009 70.9013 355.009 72.496C355.009 77.1413 355.459 80.5213 356.361 82.636C355.494 83.0173 354.506 83.208 353.397 83.208C351.871 83.208 350.831 82.896 350.277 82.272C349.757 81.648 349.497 80.5907 349.497 79.1C349.497 78.5453 349.514 77.2107 349.549 75.096C349.583 72.9467 349.601 71.3 349.601 70.156C349.601 65.1293 349.445 61.1947 349.133 58.352C349.965 58.2133 350.866 58.144 351.837 58.144ZM352.097 55.96C351.057 55.96 350.173 55.6133 349.445 54.92C348.717 54.2267 348.353 53.3427 348.353 52.268C348.353 51.228 348.734 50.3613 349.497 49.668C350.259 48.94 351.161 48.576 352.201 48.576C353.206 48.576 354.073 48.94 354.801 49.668C355.529 50.3613 355.893 51.228 355.893 52.268C355.893 53.308 355.511 54.192 354.749 54.92C353.986 55.6133 353.102 55.96 352.097 55.96ZM367.49 60.692C369.951 58.7507 372.725 57.78 375.81 57.78C377.925 57.78 379.641 58.404 380.958 59.652C382.275 60.9 382.934 62.9107 382.934 65.684C382.934 66.0653 382.899 67.4173 382.83 69.74C382.795 72.0627 382.778 73.7613 382.778 74.836C382.778 77.6787 383.229 80.244 384.13 82.532C383.055 82.9827 382.085 83.208 381.218 83.208C379.797 83.208 378.791 82.9133 378.202 82.324C377.613 81.7347 377.318 80.6253 377.318 78.996C377.318 77.1933 377.353 75.0267 377.422 72.496C377.491 69.9307 377.526 68.1627 377.526 67.192C377.526 65.2853 377.145 63.864 376.382 62.928C375.619 61.992 374.631 61.524 373.418 61.524C371.581 61.524 369.674 62.4253 367.698 64.228C367.767 68.8733 367.802 72.2533 367.802 74.368C367.802 77.696 367.906 80.5387 368.114 82.896C367.178 83.0347 366.311 83.104 365.514 83.104C363.261 83.104 362.134 82.4107 362.134 81.024C362.134 80.0187 362.169 78.3893 362.238 76.136C362.342 73.8827 362.394 71.8547 362.394 70.052C362.394 64.2973 362.065 60.5187 361.406 58.716C362.238 58.3347 363.139 58.144 364.11 58.144C365.115 58.144 365.895 58.3 366.45 58.612C367.005 58.924 367.351 59.6173 367.49 60.692ZM400.262 79.672C401.891 79.672 403.468 78.9093 404.994 77.384C404.924 71.0053 404.89 66.1 404.89 62.668C403.434 61.94 401.978 61.576 400.522 61.576C398.546 61.576 396.968 62.3387 395.79 63.864C394.646 65.3893 394.074 67.3827 394.074 69.844C394.074 72.756 394.663 75.1307 395.842 76.968C397.055 78.7707 398.528 79.672 400.262 79.672ZM388.406 70.624C388.406 66.776 389.463 63.6733 391.578 61.316C393.727 58.9587 396.327 57.78 399.378 57.78C401.388 57.78 403.26 58.2653 404.994 59.236C404.994 53.0307 404.786 48.1427 404.37 44.572C405.34 44.4333 406.276 44.364 407.178 44.364C408.322 44.364 409.206 44.6067 409.83 45.092C410.454 45.5773 410.766 46.2707 410.766 47.172C410.766 48.0387 410.679 51.2107 410.506 56.688C410.367 62.1307 410.298 67.0187 410.298 71.352C410.298 77.1067 410.627 80.868 411.286 82.636C410.419 82.9827 409.466 83.156 408.426 83.156C406.484 83.156 405.41 82.428 405.202 80.972C403.191 82.6707 401.059 83.52 398.806 83.52C395.998 83.52 393.554 82.3067 391.474 79.88C389.428 77.4533 388.406 74.368 388.406 70.624Z" fill="#F2BA3F"/>
</svg>
